<svg xmlns="http://www.w3.org/2000/svg" viewBox="0 0 145 21.18"><defs><style>.cls-1{fill:#028267;}</style></defs><g id="Layer_2" data-name="Layer 2"><g id="Layer_1-2" data-name="Layer 1"><g id="Layer_2-2" data-name="Layer 2"><g id="Layer_1-2-2" data-name="Layer 1-2"><path class="cls-1" d="M50.73,4.39h8V20.83H62.5V4.39h8V.29H50.73ZM0,20.83H3.69V.29H0ZM17.84,8.41H6.41v4.28H17.84v8.14h3.69V.29H17.84Zm25.57,2.37c0,3.66-2.77,5.93-6.48,5.93s-6.47-2.29-6.48-5.93V.29H26.76V11c0,6.17,4.35,10.17,10.17,10.17S47.1,17.17,47.1,11V.29H43.41Zm30.87,10H92.69V16.74H78V12.45H92V8.65H78V4.39H92.69V.3H74.28ZM127.16.3h-3.69V20.84h3.69V12.7h11.43V8.41H127.16Zm14.15,20.54H145V.3h-3.69ZM109.94,4.21a13.8,13.8,0,0,1,7.27,2l1.89-3.56A16,16,0,0,0,109.74,0C102,0,96.52,4.73,96.52,10.54S102,21.08,109.74,21.08a16,16,0,0,0,9.36-2.66l-1.89-3.56a13.8,13.8,0,0,1-7.27,2c-6,0-9.78-2.84-9.78-6.34S103.94,4.22,109.94,4.21Z"/></g></g></g></g></svg>